<svg width="32" height="32" viewBox="0 0 32 32" fill="none" xmlns="http://www.w3.org/2000/svg">
<rect x="0.5" y="0.5" width="31" height="31" rx="7.5" fill="#EFFFF7"/>
<rect x="0.5" y="0.5" width="31" height="31" rx="7.5" stroke="#84FFC1"/>
<path d="M23.97 5.75H21.03C19.76 5.75 19 6.51 19 7.78V10.72C19 11.99 19.76 12.75 21.03 12.75H23.97C25.24 12.75 26 11.99 26 10.72V7.78C26 6.51 25.24 5.75 23.97 5.75ZM24.19 9.06C24.07 9.18 23.91 9.24 23.75 9.24C23.59 9.24 23.43 9.18 23.31 9.06L23.13 8.88V11.12C23.13 11.47 22.85 11.75 22.5 11.75C22.15 11.75 21.87 11.47 21.87 11.12V8.88L21.69 9.06C21.45 9.3 21.05 9.3 20.81 9.06C20.57 8.82 20.57 8.42 20.81 8.18L22.06 6.93C22.11 6.88 22.18 6.84 22.25 6.81C22.27 6.8 22.29 6.8 22.31 6.79C22.36 6.77 22.41 6.76 22.47 6.76C22.49 6.76 22.51 6.76 22.53 6.76C22.6 6.76 22.66 6.77 22.73 6.8C22.74 6.8 22.74 6.8 22.75 6.8C22.82 6.83 22.88 6.87 22.93 6.92C22.94 6.93 22.94 6.93 22.95 6.93L24.2 8.18C24.44 8.42 24.44 8.82 24.19 9.06Z" fill="#34C47C"/>
<path d="M6 15.46V20.46C6 22.75 7.85 24.6 10.14 24.6H21.85C24.14 24.6 26 22.74 26 20.45V15.46C26 14.79 25.46 14.25 24.79 14.25H7.21C6.54 14.25 6 14.79 6 15.46ZM12 21.25H10C9.59 21.25 9.25 20.91 9.25 20.5C9.25 20.09 9.59 19.75 10 19.75H12C12.41 19.75 12.75 20.09 12.75 20.5C12.75 20.91 12.41 21.25 12 21.25ZM18.5 21.25H14.5C14.09 21.25 13.75 20.91 13.75 20.5C13.75 20.09 14.09 19.75 14.5 19.75H18.5C18.91 19.75 19.25 20.09 19.25 20.5C19.25 20.91 18.91 21.25 18.5 21.25Z" fill="#34C47C"/>
<path d="M17.5 8.6099V11.5399C17.5 12.2099 16.96 12.7499 16.29 12.7499H7.21C6.53 12.7499 6 12.1899 6 11.5199C6.01 10.3899 6.46 9.3599 7.21 8.6099C7.96 7.8599 9 7.3999 10.14 7.3999H16.29C16.96 7.3999 17.5 7.9399 17.5 8.6099Z" fill="#34C47C"/>
</svg>
