<svg width="24" height="25" viewBox="0 0 24 25" fill="none" xmlns="http://www.w3.org/2000/svg">
<g id="vuesax/bold/box">
<path id="Vector" d="M20.2102 8.31872L12.5102 12.7787C12.2002 12.9587 11.8102 12.9587 11.4902 12.7787L3.79021 8.31872C3.24021 7.99872 3.10021 7.24872 3.52021 6.77872C3.81021 6.44872 4.14021 6.17872 4.49021 5.98872L9.91021 2.98872C11.0702 2.33872 12.9502 2.33872 14.1102 2.98872L19.5302 5.98872C19.8802 6.17872 20.2102 6.45872 20.5002 6.77872C20.9002 7.24872 20.7602 7.99872 20.2102 8.31872Z" fill="#2E90FA"/>
<path id="Vector_2" d="M11.43 14.6387V21.4587C11.43 22.2187 10.66 22.7187 9.97998 22.3887C7.91998 21.3787 4.44998 19.4887 4.44998 19.4887C3.22998 18.7987 2.22998 17.0587 2.22998 15.6287V10.4687C2.22998 9.67866 3.05998 9.17866 3.73998 9.56866L10.93 13.7387C11.23 13.9287 11.43 14.2687 11.43 14.6387Z" fill="#2E90FA"/>
<path id="Vector_3" d="M12.5698 14.6387V21.4587C12.5698 22.2187 13.3398 22.7187 14.0198 22.3887C16.0798 21.3787 19.5498 19.4887 19.5498 19.4887C20.7698 18.7987 21.7698 17.0587 21.7698 15.6287V10.4687C21.7698 9.67866 20.9398 9.17866 20.2598 9.56866L13.0698 13.7387C12.7698 13.9287 12.5698 14.2687 12.5698 14.6387Z" fill="#2E90FA"/>
</g>
</svg>
