<svg width="32" height="33" viewBox="0 0 32 33" fill="none" xmlns="http://www.w3.org/2000/svg">
<rect x="0.5" y="0.998779" width="31" height="31" rx="7.5" fill="#F5FAFF"/>
<rect x="0.5" y="0.998779" width="31" height="31" rx="7.5" stroke="#D1E9FF"/>
<path d="M24.2102 12.3187L16.5102 16.7787C16.2002 16.9587 15.8102 16.9587 15.4902 16.7787L7.79021 12.3187C7.24021 11.9987 7.10021 11.2487 7.52021 10.7787C7.81021 10.4487 8.14021 10.1787 8.49021 9.98872L13.9102 6.98872C15.0702 6.33872 16.9502 6.33872 18.1102 6.98872L23.5302 9.98872C23.8802 10.1787 24.2102 10.4587 24.5002 10.7787C24.9002 11.2487 24.7602 11.9987 24.2102 12.3187Z" fill="#2E90FA"/>
<path d="M15.43 18.6387V25.4587C15.43 26.2187 14.66 26.7187 13.98 26.3887C11.92 25.3787 8.44998 23.4887 8.44998 23.4887C7.22998 22.7987 6.22998 21.0587 6.22998 19.6287V14.4687C6.22998 13.6787 7.05998 13.1787 7.73998 13.5687L14.93 17.7387C15.23 17.9287 15.43 18.2687 15.43 18.6387Z" fill="#2E90FA"/>
<path d="M16.5698 18.6387V25.4587C16.5698 26.2187 17.3398 26.7187 18.0198 26.3887C20.0798 25.3787 23.5498 23.4887 23.5498 23.4887C24.7698 22.7987 25.7698 21.0587 25.7698 19.6287V14.4687C25.7698 13.6787 24.9398 13.1787 24.2598 13.5687L17.0698 17.7387C16.7698 17.9287 16.5698 18.2687 16.5698 18.6387Z" fill="#2E90FA"/>
</svg>
