<svg width="32" height="33" viewBox="0 0 32 33" fill="none" xmlns="http://www.w3.org/2000/svg">
<rect x="0.5" y="1.48633" width="31" height="31" rx="7.5" fill="#EFFFF7"/>
<rect x="0.5" y="1.48633" width="31" height="31" rx="7.5" stroke="#84FFC1"/>
<path d="M12.3899 23.4763V13.3163C12.3899 12.9163 12.5099 12.5263 12.7299 12.1963L15.4599 8.1363C15.8899 7.4863 16.9599 7.0263 17.8699 7.3663C18.8499 7.6963 19.4999 8.7963 19.2899 9.7763L18.7699 13.0463C18.7299 13.3463 18.8099 13.6163 18.9799 13.8263C19.1499 14.0163 19.3999 14.1363 19.6699 14.1363H23.7799C24.5699 14.1363 25.2499 14.4563 25.6499 15.0163C26.0299 15.5563 26.0999 16.2563 25.8499 16.9663L23.3899 24.4563C23.0799 25.6963 21.7299 26.7063 20.3899 26.7063H16.4899C15.8199 26.7063 14.8799 26.4763 14.4499 26.0463L13.1699 25.0563C12.6799 24.6863 12.3899 24.0963 12.3899 23.4763Z" fill="#12B76A"/>
<path d="M9.21 11.3663H8.18C6.63 11.3663 6 11.9663 6 13.4463V23.5063C6 24.9863 6.63 25.5863 8.18 25.5863H9.21C10.76 25.5863 11.39 24.9863 11.39 23.5063V13.4463C11.39 11.9663 10.76 11.3663 9.21 11.3663Z" fill="#12B76A"/>
</svg>
