<svg width="32" height="33" viewBox="0 0 32 33" fill="none" xmlns="http://www.w3.org/2000/svg">
<rect x="0.5" y="0.985107" width="31" height="31" rx="7.5" fill="#F5FAFF"/>
<rect x="0.5" y="0.985107" width="31" height="31" rx="7.5" stroke="#D1E9FF"/>
<path d="M21.29 8.62515L21.22 12.4152C21.21 12.9352 21.54 13.6252 21.96 13.9352L24.44 15.8152C26.03 17.0152 25.77 18.4852 23.87 19.0852L20.64 20.0952C20.1 20.2652 19.53 20.8552 19.39 21.4052L18.62 24.3452C18.01 26.6652 16.49 26.8952 15.23 24.8552L13.47 22.0052C13.15 21.4852 12.39 21.0952 11.79 21.1252L8.45003 21.2952C6.06003 21.4152 5.38003 20.0352 6.94003 18.2152L8.92003 15.9152C9.29003 15.4852 9.46003 14.6852 9.29003 14.1452L8.27003 10.9052C7.68003 9.00515 8.74003 7.95515 10.63 8.57515L13.58 9.54515C14.08 9.70515 14.83 9.59515 15.25 9.28515L18.33 7.06515C20 5.87515 21.33 6.57515 21.29 8.62515Z" fill="#2E90FA"/>
<path d="M25.4399 24.9551L22.4099 21.9251C22.1199 21.6351 21.6399 21.6351 21.3499 21.9251C21.0599 22.2151 21.0599 22.6951 21.3499 22.9851L24.3799 26.0151C24.5299 26.1651 24.7199 26.2351 24.9099 26.2351C25.0999 26.2351 25.2899 26.1651 25.4399 26.0151C25.7299 25.7251 25.7299 25.2451 25.4399 24.9551Z" fill="#2E90FA"/>
</svg>
