<svg width="24" height="25" viewBox="0 0 24 25" fill="none" xmlns="http://www.w3.org/2000/svg">
<g id="vuesax/bold/security-safe">
<g id="security-safe">
<path id="Vector" d="M20.91 12.1063V7.71627C20.91 6.89627 20.29 5.96627 19.52 5.65627L13.95 3.37627C12.7 2.86627 11.29 2.86627 10.04 3.37627L4.46997 5.65627C3.70997 5.96627 3.08997 6.89627 3.08997 7.71627V12.1063C3.08997 16.9963 6.63997 21.5763 11.49 22.9163C11.82 23.0063 12.18 23.0063 12.51 22.9163C17.36 21.5763 20.91 16.9963 20.91 12.1063ZM12.75 13.8563V16.4863C12.75 16.8963 12.41 17.2363 12 17.2363C11.59 17.2363 11.25 16.8963 11.25 16.4863V13.8563C10.24 13.5363 9.49997 12.5963 9.49997 11.4863C9.49997 10.1063 10.62 8.98627 12 8.98627C13.38 8.98627 14.5 10.1063 14.5 11.4863C14.5 12.6063 13.76 13.5363 12.75 13.8563Z" fill="#F79009"/>
</g>
</g>
</svg>
