<svg width="32" height="33" viewBox="0 0 32 33" fill="none" xmlns="http://www.w3.org/2000/svg">
<rect x="0.5" y="1.48633" width="31" height="31" rx="7.5" fill="#FFFCF5"/>
<rect x="0.5" y="1.48633" width="31" height="31" rx="7.5" stroke="#FEDF89"/>
<path d="M24.91 16.1063V11.7163C24.91 10.8963 24.29 9.96627 23.52 9.65627L17.95 7.37627C16.7 6.86627 15.29 6.86627 14.04 7.37627L8.46997 9.65627C7.70997 9.96627 7.08997 10.8963 7.08997 11.7163V16.1063C7.08997 20.9963 10.64 25.5763 15.49 26.9163C15.82 27.0063 16.18 27.0063 16.51 26.9163C21.36 25.5763 24.91 20.9963 24.91 16.1063ZM16.75 17.8563V20.4863C16.75 20.8963 16.41 21.2363 16 21.2363C15.59 21.2363 15.25 20.8963 15.25 20.4863V17.8563C14.24 17.5363 13.5 16.5963 13.5 15.4863C13.5 14.1063 14.62 12.9863 16 12.9863C17.38 12.9863 18.5 14.1063 18.5 15.4863C18.5 16.6063 17.76 17.5363 16.75 17.8563Z" fill="#F79009"/>
</svg>
