<svg width="32" height="33" viewBox="0 0 32 33" fill="none" xmlns="http://www.w3.org/2000/svg">
<rect x="0.5" y="0.985107" width="31" height="31" rx="7.5" fill="#FEF6FB"/>
<rect x="0.5" y="0.985107" width="31" height="31" rx="7.5" stroke="#FCCEEE"/>
<path d="M22 6.48511H10C8.34 6.48511 7 7.81511 7 9.45511V20.3651C7 22.0051 8.34 23.3351 10 23.3351H10.76C11.56 23.3351 12.32 23.6451 12.88 24.2051L14.59 25.8951C15.37 26.6651 16.64 26.6651 17.42 25.8951L19.13 24.2051C19.69 23.6451 20.46 23.3351 21.25 23.3351H22C23.66 23.3351 25 22.0051 25 20.3651V9.45511C25 7.81511 23.66 6.48511 22 6.48511ZM14.38 17.4951C14.79 17.4951 15.13 17.8351 15.13 18.2451C15.13 18.6551 14.79 18.9951 14.38 18.9951H11.7C11.26 18.9951 10.85 18.7851 10.59 18.4251C10.34 18.0851 10.28 17.6651 10.4 17.2651C10.75 16.1951 11.61 15.6151 12.37 15.0951C13.17 14.5551 13.62 14.2151 13.62 13.6351C13.62 13.1151 13.2 12.6951 12.68 12.6951C12.16 12.6951 11.75 13.1251 11.75 13.6451C11.75 14.0551 11.41 14.3951 11 14.3951C10.59 14.3951 10.25 14.0551 10.25 13.6451C10.25 12.3051 11.34 11.2051 12.69 11.2051C14.04 11.2051 15.13 12.2951 15.13 13.6451C15.13 15.0551 14.07 15.7751 13.22 16.3551C12.69 16.7151 12.19 17.0551 11.94 17.5051H14.38V17.4951ZM21 17.5651H20.79V18.2551C20.79 18.6651 20.45 19.0051 20.04 19.0051C19.63 19.0051 19.29 18.6651 19.29 18.2551V17.5651H17.33C17.33 17.5651 17.33 17.5651 17.32 17.5651C16.83 17.5651 16.38 17.3051 16.13 16.8851C15.88 16.4551 15.88 15.9251 16.13 15.5051C16.81 14.3351 17.6 13.0051 18.32 11.8451C18.64 11.3351 19.25 11.1051 19.82 11.2651C20.39 11.4351 20.79 11.9551 20.78 12.5551V16.0751H21C21.41 16.0751 21.75 16.4151 21.75 16.8251C21.75 17.2351 21.41 17.5651 21 17.5651Z" fill="#EE46BC"/>
<path d="M19.29 16.0651V13.1251C18.7 14.0851 18.09 15.1151 17.54 16.0551H19.29V16.0651Z" fill="#292D32"/>
</svg>
