<svg width="32" height="33" viewBox="0 0 32 33" fill="none" xmlns="http://www.w3.org/2000/svg">
<rect x="0.5" y="0.998779" width="31" height="31" rx="7.5" fill="#FEF6FB"/>
<rect x="0.5" y="0.998779" width="31" height="31" rx="7.5" stroke="#FCCEEE"/>
<path d="M25.5 19.9988C25.78 19.9988 26 20.2188 26 20.4988V21.4988C26 23.1588 24.66 24.4988 23 24.4988C23 22.8488 21.65 21.4988 20 21.4988C18.35 21.4988 17 22.8488 17 24.4988H15C15 22.8488 13.65 21.4988 12 21.4988C10.35 21.4988 9 22.8488 9 24.4988C7.34 24.4988 6 23.1588 6 21.4988V19.4988C6 18.9488 6.45 18.4988 7 18.4988H16.5C17.88 18.4988 19 17.3788 19 15.9988V10.4988C19 9.94878 19.45 9.49878 20 9.49878H20.84C21.56 9.49878 22.22 9.88878 22.58 10.5088L23.22 11.6288C23.31 11.7888 23.19 11.9988 23 11.9988C21.62 11.9988 20.5 13.1188 20.5 14.4988V17.4988C20.5 18.8788 21.62 19.9988 23 19.9988H25.5Z" fill="#EE46BC"/>
<path d="M12 26.4988C13.1046 26.4988 14 25.6033 14 24.4988C14 23.3942 13.1046 22.4988 12 22.4988C10.8954 22.4988 10 23.3942 10 24.4988C10 25.6033 10.8954 26.4988 12 26.4988Z" fill="#EE46BC"/>
<path d="M20 26.4988C21.1046 26.4988 22 25.6033 22 24.4988C22 23.3942 21.1046 22.4988 20 22.4988C18.8954 22.4988 18 23.3942 18 24.4988C18 25.6033 18.8954 26.4988 20 26.4988Z" fill="#EE46BC"/>
<path d="M26 17.0288V18.4988H23C22.45 18.4988 22 18.0488 22 17.4988V14.4988C22 13.9488 22.45 13.4988 23 13.4988H24.29L25.74 16.0388C25.91 16.3388 26 16.6788 26 17.0288Z" fill="#EE46BC"/>
<path d="M17.08 6.49878H9.69C7.65 6.49878 6 8.14878 6 10.1888V16.5688C6 17.1188 6.45 17.5688 7 17.5688H16.15C17.17 17.5688 18 16.7388 18 15.7188V7.41878C18 6.90878 17.59 6.49878 17.08 6.49878ZM14.07 11.5688L11.98 13.5888C11.83 13.7288 11.64 13.7988 11.46 13.7988C11.27 13.7988 11.08 13.7288 10.94 13.5888L9.93 12.6288C9.63 12.3388 9.62 11.8588 9.91 11.5588C10.19 11.2588 10.67 11.2588 10.97 11.5388L11.46 12.0088L13.03 10.4888C13.33 10.1988 13.8 10.2088 14.09 10.5088C14.38 10.8088 14.37 11.2788 14.07 11.5688Z" fill="#EE46BC"/>
</svg>
